Jump_normalized_precision_landing05_filtered_grf
version=1
nRows=10
nColumns=37
inDegrees=yes
endheader
time		1_ground_force_vx		1_ground_force_vy		1_ground_force_vz		1_ground_force_px		1_ground_force_py		1_ground_force_pz		1_ground_torque_x		1_ground_torque_y		1_ground_torque_z		2_ground_force_vx		2_ground_force_vy		2_ground_force_vz		2_ground_force_px		2_ground_force_py		2_ground_force_pz		2_ground_torque_x		2_ground_torque_y		2_ground_torque_z		3_ground_force_vx		3_ground_force_vy		3_ground_force_vz		3_ground_force_px		3_ground_force_py		3_ground_force_pz		3_ground_torque_x		3_ground_torque_y		3_ground_torque_z		4_ground_force_vx		4_ground_force_vy		4_ground_force_vz		4_ground_force_px		4_ground_force_py		4_ground_force_pz		4_ground_torque_x		4_ground_torque_y		4_ground_torque_z		
0.542000		-0.000000		0.000000		0.000000		0.118404		0.000000		0.326900		0.000000		0.000000		-0.000000		-0.000000		-0.000000		-0.000000		-0.178590		0.000000		0.245785		-0.000000		0.000000		-0.000000		-35.622027		572.548502		51.658910		0.381220		1.273792		1.887292		2.039573		-32.781807		-2.957780		73.031066		559.443828		34.974323		-0.352536		1.266816		1.875053		3.735718		28.616920		1.789022		
0.545409		-0.000000		0.000000		0.000000		0.118404		0.000000		0.326900		0.000000		0.000000		-0.000000		0.000000		-0.000000		-0.000000		-0.178590		0.000000		0.245785		-0.000000		0.000000		-0.000000		-34.314485		570.850136		48.084031		0.381191		1.273798		1.887404		1.972996		-32.822458		-2.764709		72.667218		560.579168		32.131382		-0.352549		1.266835		1.875182		3.734207		28.806919		1.651158		
0.548818		-0.000000		0.000000		0.000000		0.118404		0.000000		0.326900		0.000000		0.000000		-0.000000		0.000000		0.000000		0.000000		-0.178590		0.000000		0.245785		0.000000		-0.000000		0.000000		-32.772595		568.907047		44.370135		0.381162		1.273812		1.887531		1.892508		-32.852512		-2.562225		72.211880		561.146671		29.081346		-0.352561		1.266857		1.875320		3.728845		28.976247		1.501686		
0.552227		-0.000000		0.000000		0.000000		0.118404		0.000000		0.326900		0.000000		0.000000		-0.000000		0.000000		0.000000		0.000000		-0.178590		0.000000		0.245785		0.000000		-0.000000		0.000000		-31.119077		566.924874		40.703976		0.381143		1.273832		1.887665		1.805151		-32.886135		-2.361148		71.704740		561.201166		25.742696		-0.352558		1.266880		1.875464		3.722039		29.130754		1.336243		
0.555636		0.000000		-0.000000		0.000000		0.118404		0.000000		0.326900		-0.000000		-0.000000		0.000000		0.000000		0.000000		0.000000		-0.178590		0.000000		0.245785		0.000000		-0.000000		0.000000		-29.474809		565.106403		37.252168		0.381134		1.273854		1.887801		1.717841		-32.935377		-2.171117		71.211675		560.858450		21.993897		-0.352519		1.266912		1.875608		3.717083		29.275508		1.148025		
0.559045		0.000000		-0.000000		-0.000000		0.118404		0.000000		0.326900		-0.000000		-0.000000		0.000000		0.000000		0.000000		0.000000		-0.178590		0.000000		0.245785		0.000000		-0.000000		0.000000		-27.905595		563.576967		34.045740		0.381140		1.273873		1.887937		1.634280		-33.005676		-1.993875		70.802232		560.239235		17.805338		-0.352440		1.266956		1.875746		3.716934		29.411109		0.934732		
0.562455		0.000000		-0.000000		-0.000000		0.118404		0.000000		0.326900		-0.000000		-0.000000		0.000000		-0.000000		0.000000		0.000000		-0.178590		0.000000		0.245785		0.000000		-0.000000		0.000000		-26.399467		562.357062		31.003069		0.381158		1.273887		1.888069		1.553671		-33.096046		-1.824603		70.526109		559.425245		13.235945		-0.352327		1.267011		1.875874		3.723284		29.533733		0.698762		
0.565864		0.000000		-0.000000		-0.000000		0.118404		0.000000		0.326900		-0.000000		-0.000000		0.000000		-0.000000		-0.000000		-0.000000		-0.178590		0.000000		0.245785		-0.000000		0.000000		-0.000000		-24.885348		561.389190		27.957238		0.381189		1.273893		1.888198		1.471859		-33.203757		-1.653547		70.390696		558.443710		8.375981		-0.352188		1.267079		1.875985		3.735928		29.638938		0.444542		
0.569273		0.000000		-0.000000		-0.000000		0.118404		0.000000		0.326900		-0.000000		-0.000000		0.000000		-0.000000		-0.000000		-0.000000		-0.178590		0.000000		0.245785		-0.000000		0.000000		-0.000000		-23.278736		560.585565		24.741649		0.381224		1.273892		1.888324		1.383986		-33.328464		-1.470958		70.355509		557.279099		3.496339		-0.352053		1.267149		1.876080		3.752868		29.726092		0.186493		
0.572682		-0.000000		0.000000		0.000000		0.118404		0.000000		0.326900		0.000000		0.000000		-0.000000		-0.000000		-0.000000		-0.000000		-0.178590		0.000000		0.245785		-0.000000		0.000000		-0.000000		-21.526719		559.861080		21.237633		0.381258		1.273887		1.888444		1.286974		-33.471362		-1.269688		70.354737		555.909401		-1.205548		-0.351939		1.267216		1.876163		3.771383		29.799662		-0.064630		
